<svg width="24" height="24" viewBox="0 0 24 24" fill="none" xmlns="http://www.w3.org/2000/svg">
<path fill-rule="evenodd" clip-rule="evenodd" d="M12.0185 0.0431519C18.6272 0.0431519 23.9928 5.40845 23.9928 12.0172C23.9928 18.6259 18.6272 23.9915 12.0185 23.9915C5.40973 23.9915 0.0444336 18.6259 0.0444336 12.0172C0.0444336 5.40845 5.40973 0.0431519 12.0185 0.0431519ZM15.2893 8.7184L15.3529 8.79995C15.3845 8.84073 15.4153 8.88054 15.4425 8.91694C15.4668 8.96549 15.5153 9.01403 15.5396 9.08685C15.5821 9.15068 15.6199 9.21427 15.6571 9.27811L15.6891 9.33248C15.7262 9.39631 15.7641 9.46015 15.8066 9.52374C15.8309 9.59656 15.8794 9.66937 15.9037 9.74219C16.0008 9.93636 16.0736 10.1305 16.0978 10.349C16.1221 10.3975 16.1221 10.4461 16.1221 10.4703C16.1464 10.5189 16.1464 10.5917 16.1464 10.6645C16.1707 10.883 16.1464 11.0771 16.1221 11.2956C16.1131 11.332 16.1039 11.365 16.0949 11.397L16.0767 11.4611C16.0675 11.4932 16.0585 11.5262 16.0493 11.5626C16.025 11.6354 16.0008 11.7325 15.9522 11.8296C15.8794 11.9995 15.7823 12.1694 15.6852 12.3393C15.6609 12.3878 15.6124 12.4606 15.5639 12.5335C15.5153 12.6063 15.4668 12.6548 15.4425 12.7276C15.394 12.8004 15.3211 12.8733 15.2726 12.9461C15.2241 13.0189 15.1755 13.0917 15.1027 13.1645C15.0299 13.2616 14.9328 13.3587 14.86 13.4558C14.8114 13.5043 14.7629 13.5771 14.6901 13.6257C14.6415 13.6742 14.593 13.747 14.5202 13.7956C14.4474 13.8684 14.3745 13.9412 14.3017 13.9898L14.1561 14.1111C14.1318 14.1354 14.1076 14.1354 14.0833 14.1354H13.0153V15.4946H14.3503C14.6415 15.4946 14.9328 15.3975 15.1512 15.2034C15.2241 15.1305 15.5639 14.8393 15.9765 14.4024C16.0008 14.3781 16.0008 14.3781 16.025 14.3781L19.7144 13.3102C19.86 13.2373 19.9085 13.2859 19.9085 13.3587V14.1354C19.9085 14.1839 19.8843 14.2082 19.8357 14.2325C19.593 14.3296 18.7435 14.7179 18.4037 15.2034C17.5056 16.4412 16.826 18.2131 15.3211 18.2131H8.98619C6.75318 18.2131 4.93279 16.3927 4.93279 14.1354V14.0626C4.93279 14.014 4.98133 13.9655 5.02987 13.9655H8.59784C8.67065 13.9655 8.7192 14.0383 8.7192 14.0869C8.69493 14.3053 8.74347 14.548 8.84056 14.7665C9.059 15.2034 9.4959 15.4461 9.95706 15.4461H11.7046V14.0869H9.98134C9.88425 14.0869 9.8357 13.9898 9.88425 13.9169C9.90852 13.8927 9.93279 13.8684 9.95706 13.8199C10.127 13.5771 10.3454 13.2373 10.5881 12.8247C10.758 12.5577 10.9037 12.2422 11.025 11.9509C11.0493 11.9024 11.0736 11.8538 11.0978 11.781C11.1221 11.6839 11.1707 11.5869 11.1949 11.514C11.2192 11.4412 11.2435 11.3684 11.2677 11.2956C11.3163 11.0529 11.3406 10.7859 11.3406 10.4946C11.3406 10.3975 11.3406 10.2762 11.3163 10.1548C11.3163 10.1017 11.3117 10.0485 11.3063 9.99559L11.302 9.94995C11.2966 9.8968 11.292 9.84389 11.292 9.79073C11.292 9.69364 11.2677 9.57228 11.2435 9.4752C11.2192 9.30529 11.1949 9.15966 11.1464 8.98976L11.1221 8.94122C11.0978 8.84413 11.0736 8.72277 11.025 8.62568C10.9279 8.28588 10.8066 7.94607 10.6852 7.65481C10.6367 7.53345 10.5881 7.41209 10.5396 7.29073C10.4668 7.12083 10.394 6.95092 10.3211 6.80529C10.2969 6.73248 10.2483 6.68393 10.2241 6.61112C10.1998 6.5383 10.1512 6.46549 10.127 6.39267C10.1027 6.34413 10.0784 6.29558 10.0542 6.24704L9.8357 5.85869C9.81143 5.81015 9.85998 5.73733 9.90852 5.7616L11.2435 6.12568L11.4134 6.17422L11.6076 6.22277L11.6804 6.24704V5.44607C11.6804 5.05772 11.9959 4.74218 12.36 4.74218C12.5542 4.74218 12.7241 4.815 12.8454 4.93636C12.9668 5.05772 13.0396 5.22762 13.0396 5.4218V6.58685L13.1852 6.63539C13.1852 6.63539 13.2095 6.63539 13.2095 6.65966C13.2338 6.68393 13.2823 6.73248 13.3551 6.78102C13.4037 6.82957 13.4522 6.87811 13.525 6.92665C13.6464 7.02374 13.8163 7.16937 13.9862 7.315C14.0347 7.36355 14.0833 7.38782 14.1076 7.43636C14.326 7.63054 14.5687 7.87325 14.8114 8.14024C14.8843 8.21306 14.9328 8.28588 15.0056 8.35869C15.0784 8.43151 15.127 8.52859 15.1998 8.60141C15.2272 8.63782 15.2578 8.67762 15.2893 8.7184ZM5.85512 12.4364L5.90366 12.3635L9.059 7.43636C9.10755 7.36355 9.20464 7.36355 9.25318 7.46063C9.78716 8.64995 10.2241 10.1063 10.0299 11.0286C9.93279 11.4169 9.69007 11.9267 9.39881 12.3878C9.37454 12.4606 9.32599 12.5335 9.27745 12.582C9.25318 12.6063 9.22891 12.6305 9.18036 12.6305H5.92793C5.85512 12.6063 5.80657 12.5092 5.85512 12.4364Z" fill="white"/>
</svg>
