<svg width="34" height="27" viewBox="0 0 34 27" fill="none" xmlns="http://www.w3.org/2000/svg">
<path d="M28.5048 2.95559C28.4956 2.93765 28.4804 2.9236 28.4618 2.91594C26.3174 1.92522 24.0544 1.21876 21.7295 0.814233C21.7083 0.810279 21.6865 0.813131 21.6671 0.822385C21.6477 0.831638 21.6317 0.846822 21.6213 0.865776C21.3131 1.42895 21.0334 2.00742 20.7832 2.59898C18.277 2.21591 15.7278 2.21591 13.2217 2.59898C12.9698 2.00592 12.6856 1.4273 12.3704 0.865776C12.3595 0.847234 12.3434 0.8324 12.3241 0.823207C12.3048 0.814013 12.2832 0.810886 12.2621 0.814233C9.93697 1.21791 7.67383 1.92442 5.52968 2.916C5.51132 2.92383 5.49584 2.93721 5.48535 2.95429C1.19747 9.40215 0.0228567 15.6915 0.599082 21.9029C0.600703 21.9181 0.605348 21.9329 0.61274 21.9463C0.620133 21.9596 0.630122 21.9714 0.642113 21.9808C3.13891 23.8423 5.9316 25.2632 8.90103 26.1829C8.92194 26.1892 8.94427 26.1889 8.96501 26.1821C8.98576 26.1753 9.00393 26.1622 9.01707 26.1446C9.65484 25.2708 10.2199 24.3455 10.7067 23.3782C10.7133 23.3649 10.7172 23.3504 10.7179 23.3355C10.7186 23.3206 10.7161 23.3058 10.7107 23.2919C10.7053 23.2781 10.697 23.2655 10.6864 23.2551C10.6759 23.2447 10.6632 23.2367 10.6493 23.2316C9.7582 22.8883 8.89547 22.4744 8.06926 21.9938C8.05425 21.9849 8.04164 21.9725 8.03255 21.9575C8.02347 21.9426 8.01817 21.9256 8.01715 21.9081C8.01612 21.8906 8.01938 21.8731 8.02666 21.8572C8.03393 21.8412 8.04499 21.8274 8.05885 21.8168C8.23221 21.686 8.40569 21.5499 8.57123 21.4125C8.58594 21.4003 8.60374 21.3925 8.62262 21.3899C8.6415 21.3874 8.66072 21.3902 8.67811 21.398C14.091 23.8855 19.9512 23.8855 25.3 21.398C25.3174 21.3897 25.3368 21.3865 25.356 21.3888C25.3752 21.3912 25.3933 21.3989 25.4082 21.4112C25.5738 21.5486 25.7472 21.686 25.9219 21.8168C25.9358 21.8273 25.947 21.8411 25.9544 21.8569C25.9618 21.8728 25.9652 21.8902 25.9643 21.9077C25.9634 21.9252 25.9582 21.9423 25.9492 21.9573C25.9402 21.9723 25.9277 21.9848 25.9128 21.9938C25.0884 22.4784 24.2249 22.892 23.3315 23.2303C23.3176 23.2356 23.305 23.2438 23.2945 23.2544C23.284 23.2649 23.2758 23.2776 23.2705 23.2916C23.2652 23.3055 23.2629 23.3205 23.2637 23.3354C23.2645 23.3503 23.2684 23.3649 23.2752 23.3782C23.7701 24.3401 24.3343 25.2643 24.9635 26.1431C24.9763 26.1611 24.9944 26.1746 25.0152 26.1818C25.036 26.1889 25.0585 26.1892 25.0795 26.1827C28.0543 25.2662 30.8519 23.8451 33.3518 21.9808C33.364 21.9718 33.3741 21.9604 33.3815 21.9472C33.3889 21.934 33.3935 21.9193 33.3948 21.9042C34.0847 14.7231 32.2399 8.48536 28.5048 2.95559ZM11.515 18.1208C9.88534 18.1208 8.54254 16.6149 8.54254 14.7655C8.54254 12.916 9.8593 11.41 11.515 11.41C13.1837 11.41 14.5135 12.9291 14.4874 14.7653C14.4874 16.6149 13.1706 18.1208 11.515 18.1208ZM22.5052 18.1208C20.8755 18.1208 19.5327 16.6149 19.5327 14.7655C19.5327 12.916 20.8495 11.41 22.5052 11.41C24.1739 11.41 25.5037 12.9291 25.4776 14.7653C25.4776 16.6149 24.1739 18.1208 22.5052 18.1208Z" fill="#62E3DB"/>
</svg>
