<svg width="28" height="22" viewBox="0 0 28 22" fill="none" xmlns="http://www.w3.org/2000/svg">
<path d="M23.5874 2.27359C23.5797 2.25875 23.567 2.24712 23.5516 2.24078C21.7646 1.42087 19.8787 0.836212 17.9413 0.501434C17.9237 0.498162 17.9055 0.500522 17.8893 0.508181C17.8731 0.515839 17.8598 0.528404 17.8512 0.54409C17.5944 1.01016 17.3613 1.4889 17.1527 1.97847C15.0643 1.66144 12.9399 1.66144 10.8515 1.97847C10.6416 1.48765 10.4047 1.0088 10.142 0.54409C10.133 0.528745 10.1196 0.516469 10.1035 0.508861C10.0874 0.501252 10.0694 0.498664 10.0519 0.501434C8.11422 0.835509 6.22827 1.42021 4.44148 2.24083C4.42619 2.24731 4.41328 2.25838 4.40454 2.27251C0.831307 7.60867 -0.147538 12.8136 0.33265 17.9541C0.334001 17.9667 0.337871 17.9789 0.344032 17.99C0.350192 18.0011 0.358516 18.0108 0.368509 18.0186C2.44917 19.5592 4.77642 20.7351 7.25094 21.4962C7.26836 21.5014 7.28697 21.5012 7.30426 21.4955C7.32155 21.4899 7.33669 21.479 7.34764 21.4645C7.87911 20.7414 8.35004 19.9756 8.75562 19.175C8.7612 19.1641 8.76438 19.152 8.76496 19.1397C8.76554 19.1274 8.76351 19.1151 8.759 19.1037C8.75448 19.0922 8.74759 19.0818 8.73878 19.0732C8.72996 19.0646 8.71943 19.058 8.70786 19.0537C7.96524 18.7696 7.24631 18.4271 6.5578 18.0294C6.54529 18.022 6.53478 18.0117 6.52721 17.9993C6.51964 17.9869 6.51523 17.9729 6.51437 17.9584C6.51351 17.9439 6.51623 17.9295 6.5223 17.9163C6.52836 17.9031 6.53757 17.8916 6.54912 17.8828C6.69359 17.7746 6.83815 17.662 6.97611 17.5483C6.98836 17.5382 7.00319 17.5317 7.01893 17.5296C7.03467 17.5275 7.05068 17.5298 7.06517 17.5363C11.5759 19.5949 16.4594 19.5949 20.9167 17.5363C20.9313 17.5294 20.9475 17.5267 20.9634 17.5287C20.9794 17.5306 20.9945 17.537 21.0069 17.5472C21.1449 17.6609 21.2894 17.7746 21.435 17.8828C21.4466 17.8915 21.4559 17.9029 21.4621 17.9161C21.4682 17.9292 21.471 17.9436 21.4703 17.9581C21.4695 17.9726 21.4652 17.9867 21.4578 17.9991C21.4503 18.0115 21.4398 18.0219 21.4274 18.0294C20.7404 18.4304 20.0209 18.7727 19.2763 19.0527C19.2647 19.0571 19.2542 19.0638 19.2455 19.0726C19.2367 19.0813 19.2299 19.0918 19.2255 19.1034C19.2211 19.1149 19.2191 19.1273 19.2198 19.1396C19.2205 19.152 19.2238 19.164 19.2294 19.175C19.6418 19.9712 20.112 20.7359 20.6363 21.4632C20.647 21.4782 20.662 21.4894 20.6794 21.4953C20.6967 21.5011 20.7155 21.5014 20.733 21.4961C23.212 20.7375 25.5433 19.5615 27.6266 18.0186C27.6367 18.0112 27.6452 18.0017 27.6514 17.9908C27.6575 17.9798 27.6613 17.9677 27.6624 17.9552C28.2373 12.0123 26.7 6.84995 23.5874 2.27359ZM9.42927 14.8241C8.0712 14.8241 6.9522 13.5778 6.9522 12.0473C6.9522 10.5167 8.0495 9.27035 9.42927 9.27035C10.8198 9.27035 11.928 10.5275 11.9063 12.0472C11.9063 13.5778 10.8089 14.8241 9.42927 14.8241ZM18.5877 14.8241C17.2297 14.8241 16.1107 13.5778 16.1107 12.0473C16.1107 10.5167 17.208 9.27035 18.5877 9.27035C19.9784 9.27035 21.0865 10.5275 21.0648 12.0472C21.0648 13.5778 19.9784 14.8241 18.5877 14.8241Z" fill="white"/>
</svg>
