<svg width="22" height="18" viewBox="0 0 22 18" fill="none" xmlns="http://www.w3.org/2000/svg">
<path d="M21.3678 2.37751C20.6012 2.71829 19.7761 2.94816 18.9104 3.05103C19.7943 2.52187 20.472 1.68367 20.7917 0.683757C19.9649 1.1744 19.0497 1.53042 18.0747 1.72262C17.2945 0.89119 16.1824 0.371338 14.9518 0.371338C12.5892 0.371338 10.6736 2.28692 10.6736 4.64996C10.6736 4.98482 10.7113 5.31121 10.7845 5.6249C7.22851 5.44625 4.07553 3.74318 1.96521 1.1545C1.59692 1.78612 1.3861 2.52102 1.3861 3.30588C1.3861 4.79008 2.14132 6.09988 3.2894 6.86695C2.58836 6.84452 1.92838 6.6519 1.35138 6.33144C1.35096 6.34922 1.35096 6.36742 1.35096 6.38563C1.35096 8.45826 2.82585 10.1872 4.78334 10.5809C4.42435 10.6782 4.04632 10.7307 3.65601 10.7307C3.37999 10.7307 3.11202 10.704 2.85083 10.6537C3.39566 12.3533 4.97553 13.5907 6.84751 13.625C5.3832 14.7727 3.53874 15.4568 1.53384 15.4568C1.18882 15.4568 0.84804 15.4365 0.513184 15.3967C2.40717 16.6112 4.65592 17.319 7.07188 17.319C14.9421 17.319 19.2452 10.7997 19.2452 5.14568C19.2452 4.96026 19.2414 4.77527 19.2334 4.59154C20.069 3.98956 20.7946 3.23561 21.3678 2.37751Z" fill="white"/>
</svg>
